<mxfile host="app.diagrams.net" modified="2023-06-05T07:22:56.532Z" agent="Mozilla/5.0 (Windows NT 10.0; Win64; x64) AppleWebKit/537.36 (KHTML, like Gecko) Chrome/114.0.0.0 Safari/537.36" etag="aNW15hJfuRzNlvlSaAw4" version="21.3.4" type="device">
  <diagram name="Page-1" id="Kq6hB3K2l-31EJR7dW2W">
    <mxGraphModel dx="121" dy="137" grid="1" gridSize="10" guides="1" tooltips="1" connect="1" arrows="1" fold="1" page="1" pageScale="1" pageWidth="827" pageHeight="1169" math="0" shadow="0">
      <root>
        <mxCell id="0" />
        <mxCell id="1" parent="0" />
        <mxCell id="t4-4o5RfYrzUJpfSqYdp-8" style="rounded=0;orthogonalLoop=1;jettySize=auto;html=1;exitX=0.5;exitY=0;exitDx=0;exitDy=0;entryX=0.5;entryY=1;entryDx=0;entryDy=0;endArrow=none;endFill=0;" edge="1" parent="1" source="t4-4o5RfYrzUJpfSqYdp-1" target="t4-4o5RfYrzUJpfSqYdp-7">
          <mxGeometry relative="1" as="geometry" />
        </mxCell>
        <mxCell id="t4-4o5RfYrzUJpfSqYdp-1" value="School" style="rounded=0;whiteSpace=wrap;html=1;" vertex="1" parent="1">
          <mxGeometry x="512.75" y="670" width="120" height="40" as="geometry" />
        </mxCell>
        <mxCell id="t4-4o5RfYrzUJpfSqYdp-12" style="rounded=0;orthogonalLoop=1;jettySize=auto;html=1;exitX=0;exitY=0.5;exitDx=0;exitDy=0;endArrow=none;endFill=0;" edge="1" parent="1" source="t4-4o5RfYrzUJpfSqYdp-3" target="t4-4o5RfYrzUJpfSqYdp-11">
          <mxGeometry relative="1" as="geometry" />
        </mxCell>
        <mxCell id="t4-4o5RfYrzUJpfSqYdp-15" style="rounded=0;orthogonalLoop=1;jettySize=auto;html=1;exitX=0;exitY=0.5;exitDx=0;exitDy=0;endArrow=none;endFill=0;" edge="1" parent="1" source="t4-4o5RfYrzUJpfSqYdp-3" target="t4-4o5RfYrzUJpfSqYdp-14">
          <mxGeometry relative="1" as="geometry" />
        </mxCell>
        <mxCell id="t4-4o5RfYrzUJpfSqYdp-18" style="rounded=0;orthogonalLoop=1;jettySize=auto;html=1;exitX=1;exitY=0.5;exitDx=0;exitDy=0;entryX=0.5;entryY=0;entryDx=0;entryDy=0;endArrow=none;endFill=0;fontStyle=6" edge="1" parent="1" source="t4-4o5RfYrzUJpfSqYdp-3" target="t4-4o5RfYrzUJpfSqYdp-16">
          <mxGeometry relative="1" as="geometry" />
        </mxCell>
        <mxCell id="t4-4o5RfYrzUJpfSqYdp-28" style="rounded=0;orthogonalLoop=1;jettySize=auto;html=1;exitX=0.5;exitY=1;exitDx=0;exitDy=0;entryX=0.5;entryY=0;entryDx=0;entryDy=0;endArrow=none;endFill=0;" edge="1" parent="1" source="t4-4o5RfYrzUJpfSqYdp-3" target="t4-4o5RfYrzUJpfSqYdp-30">
          <mxGeometry relative="1" as="geometry">
            <mxPoint x="347.75" y="270" as="targetPoint" />
          </mxGeometry>
        </mxCell>
        <mxCell id="t4-4o5RfYrzUJpfSqYdp-3" value="Supervision Form" style="rounded=0;whiteSpace=wrap;html=1;" vertex="1" parent="1">
          <mxGeometry x="392.75" y="200" width="120" height="40" as="geometry" />
        </mxCell>
        <mxCell id="t4-4o5RfYrzUJpfSqYdp-4" value="256x" style="text;html=1;strokeColor=none;fillColor=none;align=center;verticalAlign=middle;whiteSpace=wrap;rounded=0;" vertex="1" parent="1">
          <mxGeometry x="572.75" y="120" width="230" height="30" as="geometry" />
        </mxCell>
        <mxCell id="t4-4o5RfYrzUJpfSqYdp-7" value="id" style="ellipse;whiteSpace=wrap;html=1;align=center;fontStyle=4;" vertex="1" parent="1">
          <mxGeometry x="522.75" y="590" width="100" height="40" as="geometry" />
        </mxCell>
        <mxCell id="t4-4o5RfYrzUJpfSqYdp-11" value="id" style="ellipse;whiteSpace=wrap;html=1;align=center;fontStyle=4;" vertex="1" parent="1">
          <mxGeometry x="195.25" y="220" width="100" height="40" as="geometry" />
        </mxCell>
        <mxCell id="t4-4o5RfYrzUJpfSqYdp-14" value="name" style="ellipse;whiteSpace=wrap;html=1;align=center;" vertex="1" parent="1">
          <mxGeometry x="242.75" y="150" width="100" height="40" as="geometry" />
        </mxCell>
        <mxCell id="t4-4o5RfYrzUJpfSqYdp-16" value="term" style="ellipse;whiteSpace=wrap;html=1;align=center;" vertex="1" parent="1">
          <mxGeometry x="582.75" y="220" width="100" height="40" as="geometry" />
        </mxCell>
        <mxCell id="t4-4o5RfYrzUJpfSqYdp-17" value="education_year" style="ellipse;whiteSpace=wrap;html=1;align=center;" vertex="1" parent="1">
          <mxGeometry x="612.75" y="160" width="100" height="40" as="geometry" />
        </mxCell>
        <mxCell id="t4-4o5RfYrzUJpfSqYdp-19" style="rounded=0;orthogonalLoop=1;jettySize=auto;html=1;exitX=1;exitY=0.5;exitDx=0;exitDy=0;endArrow=none;endFill=0;fontStyle=6" edge="1" parent="1" source="t4-4o5RfYrzUJpfSqYdp-3">
          <mxGeometry relative="1" as="geometry">
            <mxPoint x="462.75" y="250" as="sourcePoint" />
            <mxPoint x="612.75" y="180" as="targetPoint" />
          </mxGeometry>
        </mxCell>
        <mxCell id="t4-4o5RfYrzUJpfSqYdp-21" value="รายการนิเทศ ติดตาม การเตรียมความพร้อมการเปิดภาคเรียน" style="text;html=1;strokeColor=none;fillColor=none;align=center;verticalAlign=middle;whiteSpace=wrap;rounded=0;" vertex="1" parent="1">
          <mxGeometry x="52.75" y="90" width="310" height="30" as="geometry" />
        </mxCell>
        <mxCell id="t4-4o5RfYrzUJpfSqYdp-23" value="1 or 2" style="text;html=1;strokeColor=none;fillColor=none;align=center;verticalAlign=middle;whiteSpace=wrap;rounded=0;" vertex="1" parent="1">
          <mxGeometry x="672.75" y="205" width="100" height="30" as="geometry" />
        </mxCell>
        <mxCell id="t4-4o5RfYrzUJpfSqYdp-24" value="rating_scale_question" style="rounded=0;whiteSpace=wrap;html=1;" vertex="1" parent="1">
          <mxGeometry x="118" y="593" width="130" height="40" as="geometry" />
        </mxCell>
        <mxCell id="t4-4o5RfYrzUJpfSqYdp-30" value="type" style="ellipse;whiteSpace=wrap;html=1;align=center;" vertex="1" parent="1">
          <mxGeometry x="287.75" y="270" width="100" height="40" as="geometry" />
        </mxCell>
        <mxCell id="t4-4o5RfYrzUJpfSqYdp-31" value="rating scale" style="text;html=1;strokeColor=none;fillColor=none;align=center;verticalAlign=middle;whiteSpace=wrap;rounded=0;" vertex="1" parent="1">
          <mxGeometry x="484" y="270" width="80" height="30" as="geometry" />
        </mxCell>
        <mxCell id="t4-4o5RfYrzUJpfSqYdp-32" value="two_choice" style="text;html=1;strokeColor=none;fillColor=none;align=center;verticalAlign=middle;whiteSpace=wrap;rounded=0;" vertex="1" parent="1">
          <mxGeometry x="480" y="295" width="80" height="30" as="geometry" />
        </mxCell>
        <mxCell id="t4-4o5RfYrzUJpfSqYdp-34" value="rating scale" style="text;html=1;strokeColor=none;fillColor=none;align=center;verticalAlign=middle;whiteSpace=wrap;rounded=0;" vertex="1" parent="1">
          <mxGeometry x="72.75" y="290" width="80" height="30" as="geometry" />
        </mxCell>
        <mxCell id="t4-4o5RfYrzUJpfSqYdp-44" style="rounded=0;orthogonalLoop=1;jettySize=auto;html=1;exitX=0.5;exitY=0;exitDx=0;exitDy=0;entryX=0;entryY=1;entryDx=0;entryDy=0;endArrow=none;endFill=0;" edge="1" parent="1" source="t4-4o5RfYrzUJpfSqYdp-35" target="t4-4o5RfYrzUJpfSqYdp-43">
          <mxGeometry relative="1" as="geometry" />
        </mxCell>
        <mxCell id="t4-4o5RfYrzUJpfSqYdp-35" value="rating_scale_type" style="rounded=0;whiteSpace=wrap;html=1;" vertex="1" parent="1">
          <mxGeometry x="112.75" y="425" width="120" height="40" as="geometry" />
        </mxCell>
        <mxCell id="t4-4o5RfYrzUJpfSqYdp-37" style="rounded=0;orthogonalLoop=1;jettySize=auto;html=1;exitX=1;exitY=1;exitDx=0;exitDy=0;entryX=0.5;entryY=0;entryDx=0;entryDy=0;endArrow=none;endFill=0;" edge="1" parent="1" source="t4-4o5RfYrzUJpfSqYdp-36" target="t4-4o5RfYrzUJpfSqYdp-35">
          <mxGeometry relative="1" as="geometry" />
        </mxCell>
        <mxCell id="t4-4o5RfYrzUJpfSqYdp-36" value="id" style="ellipse;whiteSpace=wrap;html=1;align=center;fontStyle=4;" vertex="1" parent="1">
          <mxGeometry x="52.75" y="360" width="100" height="40" as="geometry" />
        </mxCell>
        <mxCell id="t4-4o5RfYrzUJpfSqYdp-38" value="have" style="shape=rhombus;perimeter=rhombusPerimeter;whiteSpace=wrap;html=1;align=center;" vertex="1" parent="1">
          <mxGeometry x="255.25" y="465" width="47.5" height="30" as="geometry" />
        </mxCell>
        <mxCell id="t4-4o5RfYrzUJpfSqYdp-39" value="" style="endArrow=none;html=1;rounded=0;entryX=1;entryY=0.5;entryDx=0;entryDy=0;exitX=0;exitY=0.5;exitDx=0;exitDy=0;" edge="1" parent="1" source="t4-4o5RfYrzUJpfSqYdp-38" target="t4-4o5RfYrzUJpfSqYdp-35">
          <mxGeometry relative="1" as="geometry">
            <mxPoint x="202.75" y="460" as="sourcePoint" />
            <mxPoint x="362.75" y="460" as="targetPoint" />
          </mxGeometry>
        </mxCell>
        <mxCell id="t4-4o5RfYrzUJpfSqYdp-40" value="1" style="resizable=0;html=1;whiteSpace=wrap;align=right;verticalAlign=bottom;" connectable="0" vertex="1" parent="t4-4o5RfYrzUJpfSqYdp-39">
          <mxGeometry x="1" relative="1" as="geometry">
            <mxPoint x="20" as="offset" />
          </mxGeometry>
        </mxCell>
        <mxCell id="t4-4o5RfYrzUJpfSqYdp-41" value="" style="endArrow=none;html=1;rounded=0;exitX=0.5;exitY=1;exitDx=0;exitDy=0;entryX=1;entryY=0;entryDx=0;entryDy=0;" edge="1" parent="1" source="t4-4o5RfYrzUJpfSqYdp-38" target="t4-4o5RfYrzUJpfSqYdp-24">
          <mxGeometry relative="1" as="geometry">
            <mxPoint x="342.75" y="510" as="sourcePoint" />
            <mxPoint x="502.75" y="510" as="targetPoint" />
          </mxGeometry>
        </mxCell>
        <mxCell id="t4-4o5RfYrzUJpfSqYdp-42" value="N" style="resizable=0;html=1;whiteSpace=wrap;align=right;verticalAlign=bottom;" connectable="0" vertex="1" parent="t4-4o5RfYrzUJpfSqYdp-41">
          <mxGeometry x="1" relative="1" as="geometry" />
        </mxCell>
        <mxCell id="t4-4o5RfYrzUJpfSqYdp-43" value="name" style="ellipse;whiteSpace=wrap;html=1;align=center;" vertex="1" parent="1">
          <mxGeometry x="195.25" y="360" width="100" height="40" as="geometry" />
        </mxCell>
        <mxCell id="t4-4o5RfYrzUJpfSqYdp-45" value="ด้านการบริหารจัดการ" style="text;html=1;strokeColor=none;fillColor=none;align=center;verticalAlign=middle;whiteSpace=wrap;rounded=0;" vertex="1" parent="1">
          <mxGeometry x="187.75" y="320" width="107.5" height="30" as="geometry" />
        </mxCell>
        <mxCell id="t4-4o5RfYrzUJpfSqYdp-48" style="rounded=0;orthogonalLoop=1;jettySize=auto;html=1;exitX=0;exitY=1;exitDx=0;exitDy=0;entryX=1;entryY=0;entryDx=0;entryDy=0;endArrow=none;endFill=0;" edge="1" parent="1" source="t4-4o5RfYrzUJpfSqYdp-47" target="t4-4o5RfYrzUJpfSqYdp-35">
          <mxGeometry relative="1" as="geometry" />
        </mxCell>
        <mxCell id="t4-4o5RfYrzUJpfSqYdp-47" value="&lt;u&gt;form_id&lt;/u&gt;" style="ellipse;whiteSpace=wrap;html=1;align=center;" vertex="1" parent="1">
          <mxGeometry x="312.75" y="400" width="100" height="40" as="geometry" />
        </mxCell>
        <mxCell id="t4-4o5RfYrzUJpfSqYdp-49" value="have" style="shape=rhombus;perimeter=rhombusPerimeter;whiteSpace=wrap;html=1;align=center;" vertex="1" parent="1">
          <mxGeometry x="382.75" y="355" width="47.5" height="30" as="geometry" />
        </mxCell>
        <mxCell id="t4-4o5RfYrzUJpfSqYdp-50" value="" style="endArrow=none;html=1;rounded=0;exitX=0.5;exitY=1;exitDx=0;exitDy=0;entryX=1;entryY=0;entryDx=0;entryDy=0;" edge="1" source="t4-4o5RfYrzUJpfSqYdp-49" parent="1" target="t4-4o5RfYrzUJpfSqYdp-35">
          <mxGeometry relative="1" as="geometry">
            <mxPoint x="556.75" y="435" as="sourcePoint" />
            <mxPoint x="466.75" y="495" as="targetPoint" />
          </mxGeometry>
        </mxCell>
        <mxCell id="t4-4o5RfYrzUJpfSqYdp-51" value="N" style="resizable=0;html=1;whiteSpace=wrap;align=right;verticalAlign=bottom;" connectable="0" vertex="1" parent="t4-4o5RfYrzUJpfSqYdp-50">
          <mxGeometry x="1" relative="1" as="geometry">
            <mxPoint x="13" as="offset" />
          </mxGeometry>
        </mxCell>
        <mxCell id="t4-4o5RfYrzUJpfSqYdp-52" value="" style="endArrow=none;html=1;rounded=0;entryX=1;entryY=1;entryDx=0;entryDy=0;exitX=1;exitY=0.5;exitDx=0;exitDy=0;" edge="1" source="t4-4o5RfYrzUJpfSqYdp-49" parent="1" target="t4-4o5RfYrzUJpfSqYdp-3">
          <mxGeometry relative="1" as="geometry">
            <mxPoint x="416.75" y="385" as="sourcePoint" />
            <mxPoint x="446.75" y="370" as="targetPoint" />
          </mxGeometry>
        </mxCell>
        <mxCell id="t4-4o5RfYrzUJpfSqYdp-53" value="1" style="resizable=0;html=1;whiteSpace=wrap;align=right;verticalAlign=bottom;" connectable="0" vertex="1" parent="t4-4o5RfYrzUJpfSqYdp-52">
          <mxGeometry x="1" relative="1" as="geometry">
            <mxPoint x="20" as="offset" />
          </mxGeometry>
        </mxCell>
        <mxCell id="t4-4o5RfYrzUJpfSqYdp-54" value="รายการนิเทศ ติดตาม การดำเนินงานตามนโยบายของหน่วยงานต้นสังกัด" style="text;html=1;strokeColor=none;fillColor=none;align=center;verticalAlign=middle;whiteSpace=wrap;rounded=0;" vertex="1" parent="1">
          <mxGeometry x="32.75" y="120" width="370" height="30" as="geometry" />
        </mxCell>
        <mxCell id="t4-4o5RfYrzUJpfSqYdp-56" style="rounded=0;orthogonalLoop=1;jettySize=auto;html=1;exitX=0.5;exitY=1;exitDx=0;exitDy=0;entryX=0.25;entryY=0;entryDx=0;entryDy=0;endArrow=none;endFill=0;" edge="1" parent="1" source="t4-4o5RfYrzUJpfSqYdp-55" target="t4-4o5RfYrzUJpfSqYdp-24">
          <mxGeometry relative="1" as="geometry" />
        </mxCell>
        <mxCell id="t4-4o5RfYrzUJpfSqYdp-55" value="id" style="ellipse;whiteSpace=wrap;html=1;align=center;fontStyle=4;" vertex="1" parent="1">
          <mxGeometry x="20" y="536" width="100" height="40" as="geometry" />
        </mxCell>
        <mxCell id="t4-4o5RfYrzUJpfSqYdp-57" value="type" style="ellipse;whiteSpace=wrap;html=1;align=center;" vertex="1" parent="1">
          <mxGeometry x="135.5" y="536" width="100" height="40" as="geometry" />
        </mxCell>
        <mxCell id="t4-4o5RfYrzUJpfSqYdp-58" value="&lt;u&gt;rating_scale_type_id&lt;/u&gt;" style="ellipse;whiteSpace=wrap;html=1;align=center;" vertex="1" parent="1">
          <mxGeometry x="268.75" y="553" width="147.5" height="40" as="geometry" />
        </mxCell>
        <mxCell id="t4-4o5RfYrzUJpfSqYdp-60" style="rounded=0;orthogonalLoop=1;jettySize=auto;html=1;exitX=0.5;exitY=1;exitDx=0;exitDy=0;entryX=0.5;entryY=0;entryDx=0;entryDy=0;endArrow=none;endFill=0;" edge="1" parent="1" source="t4-4o5RfYrzUJpfSqYdp-57" target="t4-4o5RfYrzUJpfSqYdp-24">
          <mxGeometry relative="1" as="geometry">
            <mxPoint x="108" y="568" as="sourcePoint" />
            <mxPoint x="161" y="603" as="targetPoint" />
          </mxGeometry>
        </mxCell>
        <mxCell id="t4-4o5RfYrzUJpfSqYdp-61" style="rounded=0;orthogonalLoop=1;jettySize=auto;html=1;exitX=0;exitY=1;exitDx=0;exitDy=0;entryX=1;entryY=0.5;entryDx=0;entryDy=0;endArrow=none;endFill=0;" edge="1" parent="1" source="t4-4o5RfYrzUJpfSqYdp-58" target="t4-4o5RfYrzUJpfSqYdp-24">
          <mxGeometry relative="1" as="geometry">
            <mxPoint x="213" y="563" as="sourcePoint" />
            <mxPoint x="193" y="603" as="targetPoint" />
          </mxGeometry>
        </mxCell>
        <mxCell id="t4-4o5RfYrzUJpfSqYdp-62" value="การจัดประชุมครู /บุคลากร /ผู้ปกครอง และนักเรียนก่อนเปิดภาคเรียน" style="text;html=1;strokeColor=none;fillColor=none;align=center;verticalAlign=middle;whiteSpace=wrap;rounded=0;" vertex="1" parent="1">
          <mxGeometry x="2.75" y="500" width="410" height="30" as="geometry" />
        </mxCell>
        <mxCell id="t4-4o5RfYrzUJpfSqYdp-63" value="rating_scale_score" style="rounded=0;whiteSpace=wrap;html=1;" vertex="1" parent="1">
          <mxGeometry x="118" y="737" width="130" height="40" as="geometry" />
        </mxCell>
        <mxCell id="t4-4o5RfYrzUJpfSqYdp-65" style="rounded=0;orthogonalLoop=1;jettySize=auto;html=1;exitX=0.5;exitY=1;exitDx=0;exitDy=0;entryX=0.25;entryY=0;entryDx=0;entryDy=0;endArrow=none;endFill=0;" edge="1" source="t4-4o5RfYrzUJpfSqYdp-66" target="t4-4o5RfYrzUJpfSqYdp-63" parent="1">
          <mxGeometry relative="1" as="geometry" />
        </mxCell>
        <mxCell id="t4-4o5RfYrzUJpfSqYdp-66" value="id" style="ellipse;whiteSpace=wrap;html=1;align=center;fontStyle=4;" vertex="1" parent="1">
          <mxGeometry x="20" y="680" width="100" height="40" as="geometry" />
        </mxCell>
        <mxCell id="t4-4o5RfYrzUJpfSqYdp-67" value="score" style="ellipse;whiteSpace=wrap;html=1;align=center;" vertex="1" parent="1">
          <mxGeometry x="135.5" y="670" width="100" height="40" as="geometry" />
        </mxCell>
        <mxCell id="t4-4o5RfYrzUJpfSqYdp-68" value="&lt;u&gt;rating_scale_question_id&lt;/u&gt;" style="ellipse;whiteSpace=wrap;html=1;align=center;" vertex="1" parent="1">
          <mxGeometry x="282.75" y="670" width="147.5" height="40" as="geometry" />
        </mxCell>
        <mxCell id="t4-4o5RfYrzUJpfSqYdp-69" style="rounded=0;orthogonalLoop=1;jettySize=auto;html=1;exitX=0.5;exitY=1;exitDx=0;exitDy=0;entryX=0.5;entryY=0;entryDx=0;entryDy=0;endArrow=none;endFill=0;" edge="1" source="t4-4o5RfYrzUJpfSqYdp-67" target="t4-4o5RfYrzUJpfSqYdp-63" parent="1">
          <mxGeometry relative="1" as="geometry">
            <mxPoint x="108" y="712" as="sourcePoint" />
            <mxPoint x="161" y="747" as="targetPoint" />
          </mxGeometry>
        </mxCell>
        <mxCell id="t4-4o5RfYrzUJpfSqYdp-70" style="rounded=0;orthogonalLoop=1;jettySize=auto;html=1;exitX=0;exitY=1;exitDx=0;exitDy=0;entryX=1;entryY=0.5;entryDx=0;entryDy=0;endArrow=none;endFill=0;" edge="1" source="t4-4o5RfYrzUJpfSqYdp-68" target="t4-4o5RfYrzUJpfSqYdp-63" parent="1">
          <mxGeometry relative="1" as="geometry">
            <mxPoint x="213" y="707" as="sourcePoint" />
            <mxPoint x="193" y="747" as="targetPoint" />
          </mxGeometry>
        </mxCell>
        <mxCell id="t4-4o5RfYrzUJpfSqYdp-71" value="have" style="shape=rhombus;perimeter=rhombusPerimeter;whiteSpace=wrap;html=1;align=center;" vertex="1" parent="1">
          <mxGeometry x="242.75" y="650" width="47.5" height="30" as="geometry" />
        </mxCell>
        <mxCell id="t4-4o5RfYrzUJpfSqYdp-72" value="" style="endArrow=none;html=1;rounded=0;entryX=1;entryY=1;entryDx=0;entryDy=0;exitX=0.5;exitY=0;exitDx=0;exitDy=0;" edge="1" parent="1" source="t4-4o5RfYrzUJpfSqYdp-71" target="t4-4o5RfYrzUJpfSqYdp-24">
          <mxGeometry relative="1" as="geometry">
            <mxPoint x="368.75" y="651" as="sourcePoint" />
            <mxPoint x="346.75" y="616" as="targetPoint" />
          </mxGeometry>
        </mxCell>
        <mxCell id="t4-4o5RfYrzUJpfSqYdp-73" value="1" style="resizable=0;html=1;whiteSpace=wrap;align=right;verticalAlign=bottom;" connectable="0" vertex="1" parent="t4-4o5RfYrzUJpfSqYdp-72">
          <mxGeometry x="1" relative="1" as="geometry">
            <mxPoint x="20" as="offset" />
          </mxGeometry>
        </mxCell>
        <mxCell id="t4-4o5RfYrzUJpfSqYdp-74" value="" style="endArrow=none;html=1;rounded=0;exitX=1;exitY=0.5;exitDx=0;exitDy=0;entryX=1;entryY=0;entryDx=0;entryDy=0;" edge="1" parent="1" source="t4-4o5RfYrzUJpfSqYdp-71" target="t4-4o5RfYrzUJpfSqYdp-63">
          <mxGeometry relative="1" as="geometry">
            <mxPoint x="392.75" y="666" as="sourcePoint" />
            <mxPoint x="361.75" y="764" as="targetPoint" />
          </mxGeometry>
        </mxCell>
        <mxCell id="t4-4o5RfYrzUJpfSqYdp-75" value="N" style="resizable=0;html=1;whiteSpace=wrap;align=right;verticalAlign=bottom;" connectable="0" vertex="1" parent="t4-4o5RfYrzUJpfSqYdp-74">
          <mxGeometry x="1" relative="1" as="geometry">
            <mxPoint as="offset" />
          </mxGeometry>
        </mxCell>
        <mxCell id="t4-4o5RfYrzUJpfSqYdp-78" value="5" style="text;html=1;strokeColor=none;fillColor=none;align=center;verticalAlign=middle;whiteSpace=wrap;rounded=0;" vertex="1" parent="1">
          <mxGeometry x="122.75" y="655" width="30" height="20" as="geometry" />
        </mxCell>
        <mxCell id="t4-4o5RfYrzUJpfSqYdp-80" value="open_end" style="text;html=1;strokeColor=none;fillColor=none;align=center;verticalAlign=middle;whiteSpace=wrap;rounded=0;" vertex="1" parent="1">
          <mxGeometry x="480" y="317.5" width="80" height="30" as="geometry" />
        </mxCell>
        <mxCell id="t4-4o5RfYrzUJpfSqYdp-81" value="open_end" style="text;html=1;strokeColor=none;fillColor=none;align=center;verticalAlign=middle;whiteSpace=wrap;rounded=0;" vertex="1" parent="1">
          <mxGeometry x="484" y="347.5" width="80" height="30" as="geometry" />
        </mxCell>
        <mxCell id="t4-4o5RfYrzUJpfSqYdp-82" value="have" style="shape=rhombus;perimeter=rhombusPerimeter;whiteSpace=wrap;html=1;align=center;" vertex="1" parent="1">
          <mxGeometry x="380" y="770" width="47.5" height="30" as="geometry" />
        </mxCell>
        <mxCell id="t4-4o5RfYrzUJpfSqYdp-83" value="" style="endArrow=none;html=1;rounded=0;exitX=0.934;exitY=0.489;exitDx=0;exitDy=0;exitPerimeter=0;" edge="1" source="t4-4o5RfYrzUJpfSqYdp-82" parent="1" target="t4-4o5RfYrzUJpfSqYdp-1">
          <mxGeometry relative="1" as="geometry">
            <mxPoint x="362.5" y="792" as="sourcePoint" />
            <mxPoint x="400" y="780" as="targetPoint" />
          </mxGeometry>
        </mxCell>
        <mxCell id="t4-4o5RfYrzUJpfSqYdp-84" value="1" style="resizable=0;html=1;whiteSpace=wrap;align=right;verticalAlign=bottom;" connectable="0" vertex="1" parent="t4-4o5RfYrzUJpfSqYdp-83">
          <mxGeometry x="1" relative="1" as="geometry">
            <mxPoint x="1" y="27" as="offset" />
          </mxGeometry>
        </mxCell>
        <mxCell id="t4-4o5RfYrzUJpfSqYdp-85" value="" style="endArrow=none;html=1;rounded=0;exitX=0.5;exitY=1;exitDx=0;exitDy=0;entryX=0.993;entryY=0.988;entryDx=0;entryDy=0;entryPerimeter=0;" edge="1" source="t4-4o5RfYrzUJpfSqYdp-82" parent="1" target="t4-4o5RfYrzUJpfSqYdp-63">
          <mxGeometry relative="1" as="geometry">
            <mxPoint x="502.5" y="842" as="sourcePoint" />
            <mxPoint x="407.75" y="925" as="targetPoint" />
          </mxGeometry>
        </mxCell>
        <mxCell id="t4-4o5RfYrzUJpfSqYdp-86" value="N" style="resizable=0;html=1;whiteSpace=wrap;align=right;verticalAlign=bottom;" connectable="0" vertex="1" parent="t4-4o5RfYrzUJpfSqYdp-85">
          <mxGeometry x="1" relative="1" as="geometry">
            <mxPoint x="20" y="29" as="offset" />
          </mxGeometry>
        </mxCell>
        <mxCell id="t4-4o5RfYrzUJpfSqYdp-87" value="&lt;u&gt;school_id&lt;/u&gt;" style="ellipse;whiteSpace=wrap;html=1;align=center;" vertex="1" parent="1">
          <mxGeometry x="289" y="720" width="147.5" height="40" as="geometry" />
        </mxCell>
        <mxCell id="t4-4o5RfYrzUJpfSqYdp-88" style="rounded=0;orthogonalLoop=1;jettySize=auto;html=1;exitX=0;exitY=0.5;exitDx=0;exitDy=0;entryX=1;entryY=0.474;entryDx=0;entryDy=0;endArrow=none;endFill=0;entryPerimeter=0;" edge="1" parent="1" source="t4-4o5RfYrzUJpfSqYdp-87" target="t4-4o5RfYrzUJpfSqYdp-63">
          <mxGeometry relative="1" as="geometry">
            <mxPoint x="288.75" y="737" as="sourcePoint" />
            <mxPoint x="232.75" y="790" as="targetPoint" />
          </mxGeometry>
        </mxCell>
      </root>
    </mxGraphModel>
  </diagram>
</mxfile>
